<?xml version="1.0" standalone="no"?><!DOCTYPE svg PUBLIC "-//W3C//DTD SVG 1.1//EN" "http://www.w3.org/Graphics/SVG/1.1/DTD/svg11.dtd"><svg t="1681656505006" class="icon" viewBox="0 0 1187 1024" version="1.1" xmlns="http://www.w3.org/2000/svg" p-id="2159" xmlns:xlink="http://www.w3.org/1999/xlink" width="231.8359375" height="200"><path d="M911.36 430.08a112.64 112.64 0 1 0 0-225.28 112.64 112.64 0 0 0 0 225.28z m202.19904-430.08H74.28096C32.91136 0 0 33.87392 0 75.48928v873.02144C0 990.12608 32.89088 1024 74.28096 1024h1039.27808C1154.92864 1024 1187.84 990.12608 1187.84 948.51072V75.48928C1187.84 33.87392 1154.92864 0 1113.55904 0zM702.68928 595.47648l4.89472 1.72032-118.784 160.5632L798.72 1024h-184.32L409.6 757.76l172.25728-267.96032c-6.49216-11.96032-24.04352-33.44384-52.69504-64.47104a58.42944 58.42944 0 0 0-44.52352-20.35712c-5.16096 0-10.19904 0.73728-15.03232 2.08896a61.68576 61.68576 0 0 0-29.77792 19.0464L81.92 839.12704l7.0656-724.95104c2.64192-18.432 16.77312-31.70304 34.9184-31.70304l531.37408-0.3072L1085.44 81.92c18.432 0 33.32096 13.84448 34.4064 32.48128l-6.28736 724.72576L862.12608 550.912a45.17888 45.17888 0 0 0-34.03776-16.7936c-13.59872 0-23.16288 6.47168-34.14016 15.40096l-49.8688 42.8032c-10.40384 7.5776-24.55552 4.87424-36.49536 4.87424a26.5216 26.5216 0 0 0-4.9152-1.72032z m-18.5344-10.58816l-6.67648-6.32832c-3.584-3.3792-6.9632-6.4512-9.9328-9.13408l9.8304 9.13408 6.77888 6.32832z m-28.0576-26.09152l-12.61568-12.3904-0.26624-0.24576 0.26624 0.24576c4.36224 3.95264 8.68352 8.0896 12.61568 12.3904z m-41.0624-38.1952a357.45792 357.45792 0 0 0-17.1008-15.93344l16.62976 15.52384 0.47104 0.4096z m87.6544 74.87488l-11.48928-4.01408-7.04512-6.57408 7.04512 6.57408c1.29024 1.18784 7.08608 2.74432 11.4688 4.01408z m-35.14368-26.05056l-11.12064-10.32192-0.32768-0.3072 0.28672 0.3072c1.78176 1.96608 5.8368 5.5296 11.1616 10.32192z m-24.33024-23.26528L615.0144 520.6016c6.9632 6.79936 13.4144 12.4928 19.43552 17.8176 2.9696 2.62144 5.8368 5.12 8.74496 7.74144z m-45.30176-41.49248l-0.47104-0.45056-9.37984-8.6016-6.20544-5.81632c1.57696 2.88768 4.096 3.97312 6.12352 5.81632 3.54304 3.19488 6.79936 6.32832 9.4208 8.6016l0.512 0.45056zM430.08 82.47296L409.6 0h204.8l20.48 82.47296H430.08z" fill="#707070" p-id="2160"></path></svg>