<?xml version="1.0" encoding="utf-8"?>
<!-- Generator: Adobe Illustrator 15.0.0, SVG Export Plug-In . SVG Version: 6.00 Build 0)  -->
<!DOCTYPE svg PUBLIC "-//W3C//DTD SVG 1.1//EN" "http://www.w3.org/Graphics/SVG/1.1/DTD/svg11.dtd">
<svg version="1.1" id="图层_1" xmlns="http://www.w3.org/2000/svg" xmlns:xlink="http://www.w3.org/1999/xlink" x="0px" y="0px"
	 width="180px" height="180px" viewBox="0 0 170 150" enable-background="new 0 0 170 160" xml:space="preserve" fill="#336f87">
<g transform="translate(-120,-180)scale(0.7,0.7)">
<path d="M390.269,420.595l-19.291-6.671c0.146-1.255,0.216-2.52,0.216-3.784c0-4.737,0.107-16.693,0.104-31.215l17.632-5.09
	c2.122-0.613,3.346-2.831,2.733-4.952l-0.44-1.523c-0.613-2.123-2.83-3.347-4.952-2.734l-14.993,4.33
	c-0.116-28.386-0.77-61.974-3.324-71.815c-4.25-16.375-12.625-14.75-20.375-7.5s-29.75,32.5-29.75,32.5h-21.627h-4.255h-21.62
	c0,0-22-25.25-29.75-32.5s-16.125-8.875-20.375,7.5c-2.554,9.841-3.208,43.429-3.324,71.815l-14.994-4.33
	c-2.122-0.613-4.339,0.611-4.952,2.734l-0.44,1.523c-0.612,2.121,0.612,4.339,2.733,4.952l17.632,5.091
	c-0.003,14.521,0.104,26.477,0.104,31.214c0,1.264,0.07,2.529,0.215,3.784l-19.291,6.671c-2.087,0.722-3.194,2.999-2.472,5.088
	l0.518,1.498c0.722,2.087,3,3.194,5.087,2.473l18.829-6.512c4.003,8.051,12.472,14.123,27.239,14.123c4.902,0,11.345,0,18.401,0
	c24.789,0,57.173,0,57.173,0c7.06,0,13.504,0,18.408,0c14.767,0,23.235-6.072,27.238-14.123l18.829,6.512
	c2.087,0.722,4.365-0.386,5.087-2.473l0.518-1.498C393.463,423.594,392.355,421.317,390.269,420.595z M258.514,354.015
	c0-2.209,1.791-4,4-4h63.125c2.209,0,4,1.791,4,4v4.875c0,2.209-1.791,4-4,4h-63.125c-2.209,0-4-1.791-4-4V354.015z
	 M336.285,404.765c0,2.209-1.791,4-4,4h-76.417c-2.209,0-4-1.791-4-4v-4.875c0-2.209,1.791-4,4-4h76.417c2.209,0,4,1.791,4,4
	V404.765z"/>
</g>
</svg>
